<svg xmlns="http://www.w3.org/2000/svg" width="138.173" height="44" viewBox="0 0 138.173 44"><defs><style>.a{fill:#0059a5;}</style></defs><g transform="translate(0)"><g transform="translate(0)"><path class="a" d="M3.085,28.721A32.228,32.228,0,0,1,33.3,7.632L28.243,2.574a8.84,8.84,0,0,0-12.469,0L2.579,15.747a8.8,8.8,0,0,0,0,12.469Z" transform="translate(0.012 -0.001)"/><path class="a" d="M56.847,67.484l-.11-.11A34.229,34.229,0,0,0,19.77,81.69l1.253,1.253a29.469,29.469,0,0,1,25.312-9.786s2.133,5.168,3.409,8.247c-11.3-3.211-20.364-1.341-27.555,2.7l9.038,9.038a8.8,8.8,0,0,0,12.469,0L56.871,79.975A8.884,8.884,0,0,0,56.847,67.484Z" transform="translate(-15.42 -51.739)"/><path class="a" d="M222.927,34.2h12.511v2.573a2.562,2.562,0,0,1-2.577,2.573h-5.85a.638.638,0,0,0-.638.638h0v1.649h6.575V43.74a2.562,2.562,0,0,1-2.573,2.573h-3.365a.638.638,0,0,0-.638.638h0v2.683a2.557,2.557,0,0,1-2.551,2.573h-3.453V36.769a2.545,2.545,0,0,1,2.558-2.573Zm11.829,9.06V43.19a9.536,9.536,0,0,1,9.852-9.39c5.564,0,9.808,4.112,9.808,9.346v.044a9.523,9.523,0,0,1-9.852,9.39c-5.564,0-9.812-4.112-9.812-9.324Zm13.593,0V43.19a3.863,3.863,0,0,0-3.785-4.068,3.8,3.8,0,0,0-3.738,4v.066a3.863,3.863,0,0,0,3.785,4.068A3.8,3.8,0,0,0,248.349,43.256Zm7.345,0V43.19a9.34,9.34,0,0,1,8.636-9.346c4.486-.33,7.455,1.693,9.082,4.64L270.4,40.243a2.551,2.551,0,0,1-2.969-.22,3.251,3.251,0,0,0-2.243-.814c-2.023,0-3.365,1.781-3.365,3.936v.044c0,2.353,1.386,3.98,3.365,3.98a3.3,3.3,0,0,0,2.309-.836,2.491,2.491,0,0,1,2.931-.374l3.123,1.759a9.543,9.543,0,0,1-17.857-4.464Zm19.022.88V36.769a2.562,2.562,0,0,1,2.573-2.573h3.541v9.852c0,2.243,1.165,3.189,2.769,3.189s2.771-.88,2.771-3.057V36.769a2.562,2.562,0,0,1,2.573-2.573h3.541V44c0,6.158-3.585,8.577-8.95,8.577S274.716,50.1,274.716,44.136ZM292.881,49.5l1.163-1.385a3.877,3.877,0,0,1,4.4-1.1,10.579,10.579,0,0,0,3.958.77c1.08,0,1.539-.286,1.539-.77v-.044c0-.506-.57-.792-2.483-1.188-4.049-.814-7.587-1.979-7.587-5.784v-.044c0-3.431,2.683-6.07,7.631-6.07a12.6,12.6,0,0,1,8.137,2.463l-1.012,1.407a3.84,3.84,0,0,1-4.376,1.385,9.036,9.036,0,0,0-2.949-.506c-.9,0-1.319.308-1.319.748v.044c0,.484.486.792,2.4,1.166,4.6.858,7.7,2.177,7.7,5.806v.044c0,3.782-3.123,6.092-7.939,6.092a13.914,13.914,0,0,1-9.258-3.035Z" transform="translate(-171.905 -26.367)"/><g transform="translate(48.489 29.312)"><path class="a" d="M220.48,136.923h0A3.513,3.513,0,0,1,224,133.294a3.657,3.657,0,0,1,2.725,1.1l-.044.044a.748.748,0,0,1-1.012.088A2.858,2.858,0,0,0,224,134a2.74,2.74,0,0,0-2.7,2.859v.022a2.759,2.759,0,0,0,2.7,2.881,2.812,2.812,0,0,0,1.759-.572.765.765,0,0,1,.99.066l.022.022a3.59,3.59,0,0,1-2.793,1.232A3.47,3.47,0,0,1,220.48,136.923Z" transform="translate(-220.48 -133.293)"/><path class="a" d="M267.476,136.929h0a3.536,3.536,0,0,1,3.452-3.629h.11a3.506,3.506,0,0,1,3.541,3.585v.022a3.519,3.519,0,0,1-3.452,3.607h-.11A3.5,3.5,0,0,1,267.476,136.929Zm6.289,0h0a2.774,2.774,0,0,0-2.749-2.9,2.732,2.732,0,0,0-2.727,2.859v.022a2.781,2.781,0,0,0,2.749,2.881A2.744,2.744,0,0,0,273.765,136.929Z" transform="translate(-257.14 -133.298)"/><path class="a" d="M321,133.9h.374a.741.741,0,0,1,.594.286l4.156,5.3V134.67a.778.778,0,0,1,.77-.77h0v6.971h-.264a.748.748,0,0,1-.6-.286l-4.264-5.432V140.1a.781.781,0,0,1-.77.77h0Z" transform="translate(-298.895 -133.766)"/><path class="a" d="M368.87,136.923h0a3.514,3.514,0,0,1,3.519-3.629,3.657,3.657,0,0,1,2.727,1.1l-.044.044a.748.748,0,0,1-1.012.088,2.859,2.859,0,0,0-1.671-.528,2.74,2.74,0,0,0-2.7,2.859v.022a2.759,2.759,0,0,0,2.7,2.881,2.812,2.812,0,0,0,1.759-.572.765.765,0,0,1,.99.066l.022.022a3.59,3.59,0,0,1-2.793,1.232A3.484,3.484,0,0,1,368.87,136.923Z" transform="translate(-336.237 -133.292)"/><path class="a" d="M416.87,137.79v-3.3a.781.781,0,0,1,.77-.77h.024v4a2.065,2.065,0,0,0,2.133,2.353,2.015,2.015,0,0,0,2.111-2.309v-3.3a.778.778,0,0,1,.77-.77h.022v4a2.762,2.762,0,0,1-2.9,3.1A2.731,2.731,0,0,1,416.87,137.79Z" transform="translate(-373.682 -133.61)"/><path class="a" d="M465.308,133.9h3a2.742,2.742,0,0,1,1.979.7,1.861,1.861,0,0,1,.526,1.363v.022a2.036,2.036,0,0,1-1.891,2.023l2.133,2.859h-.572a.763.763,0,0,1-.614-.308l-1.781-2.4h-2V140.1a.779.779,0,0,1-.77.77h-.022Zm2.925,3.563c1.056,0,1.8-.528,1.8-1.429h0c0-.858-.66-1.363-1.781-1.363h-2.177v2.837Z" transform="translate(-411.454 -133.766)"/><path class="a" d="M509.58,139.545h0a.75.75,0,0,1,1.009-.154,3.343,3.343,0,0,0,1.869.572c.946,0,1.561-.506,1.561-1.188v-.022c0-.638-.352-1.012-1.8-1.319-1.605-.352-2.353-.88-2.353-2.023v-.022a2.048,2.048,0,0,1,2.287-1.891,3.739,3.739,0,0,1,2.463.858l-.022.022a.754.754,0,0,1-.968.22,2.9,2.9,0,0,0-1.473-.4c-.9,0-1.5.506-1.5,1.122v.022c0,.66.352,1.034,1.891,1.363s2.265.9,2.265,1.979v.022c0,1.188-.99,1.979-2.375,1.979A4.152,4.152,0,0,1,509.58,139.545Z" transform="translate(-446.004 -133.451)"/><path class="a" d="M552.866,136.929h0a3.543,3.543,0,0,1,3.455-3.629h.11a3.49,3.49,0,0,1,3.538,3.585v.022a3.519,3.519,0,0,1-3.453,3.607h-.1A3.482,3.482,0,0,1,552.866,136.929Zm6.29,0h0a2.773,2.773,0,0,0-2.749-2.9,2.731,2.731,0,0,0-2.727,2.859v.022a2.781,2.781,0,0,0,2.749,2.881A2.744,2.744,0,0,0,559.156,136.929Z" transform="translate(-479.77 -133.298)"/><path class="a" d="M604.28,139.545h0a.75.75,0,0,1,1.009-.154,3.342,3.342,0,0,0,1.869.572c.946,0,1.562-.506,1.562-1.188v-.022c0-.638-.352-1.012-1.8-1.319-1.605-.352-2.353-.88-2.353-2.023v-.022a2.048,2.048,0,0,1,2.287-1.891,3.74,3.74,0,0,1,2.463.858l-.02.022a.756.756,0,0,1-.97.22,2.9,2.9,0,0,0-1.474-.4c-.9,0-1.5.506-1.5,1.122v.022c0,.66.352,1.034,1.891,1.363s2.265.9,2.265,1.979v.022c0,1.188-.989,1.979-2.375,1.979A4.108,4.108,0,0,1,604.28,139.545Z" transform="translate(-519.878 -133.451)"/></g></g></g></svg>